<?xml version="1.0" standalone="no"?>
<!DOCTYPE svg PUBLIC "-//W3C//DTD SVG 20010904//EN"
 "http://www.w3.org/TR/2001/REC-SVG-20010904/DTD/svg10.dtd">
<svg version="1.0" xmlns="http://www.w3.org/2000/svg"
 width="1414.000000pt" height="2000.000000pt" viewBox="0 0 1414.000000 2000.000000"
 preserveAspectRatio="xMidYMid meet">

<g transform="translate(0.000000,2000.000000) scale(0.100000,-0.100000)"
fill="#000000" stroke="none">
<path d="M8736 15155 c-50 -18 -104 -69 -128 -123 -15 -34 -141 -1039 -614
-4899 -326 -2670 -594 -4879 -594 -4908 0 -58 24 -102 73 -139 l28 -21 2672
-3 c2998 -3 2743 -9 2814 72 26 29 45 65 56 103 9 32 64 447 122 923 145 1193
134 1067 104 1126 -18 37 -35 54 -69 71 l-44 23 -1417 0 c-1387 0 -1416 0
-1433 19 -12 14 -16 29 -12 48 3 15 75 604 161 1308 85 704 260 2151 389 3215
285 2343 342 2813 357 2951 12 104 12 107 -12 155 -18 37 -35 54 -69 72 l-44
22 -1151 0 c-952 -1 -1157 -3 -1189 -15z"/>
</g>
</svg>
